<svg width="15" height="15" viewBox="0 0 15 15" fill="none" xmlns="http://www.w3.org/2000/svg">
<path d="M12.6562 1.99219H5.15625C5.06301 1.99219 4.97359 2.02923 4.90766 2.09516C4.84173 2.16109 4.80469 2.25051 4.80469 2.34375V4.80469H2.34375C2.25051 4.80469 2.16109 4.84173 2.09516 4.90766C2.02923 4.97359 1.99219 5.06301 1.99219 5.15625V12.6562C1.99219 12.7495 2.02923 12.8389 2.09516 12.9048C2.16109 12.9708 2.25051 13.0078 2.34375 13.0078H9.84375C9.93699 13.0078 10.0264 12.9708 10.0923 12.9048C10.1583 12.8389 10.1953 12.7495 10.1953 12.6562V10.1953H12.6562C12.7495 10.1953 12.8389 10.1583 12.9048 10.0923C12.9708 10.0264 13.0078 9.93699 13.0078 9.84375V2.34375C13.0078 2.25051 12.9708 2.16109 12.9048 2.09516C12.8389 2.02923 12.7495 1.99219 12.6562 1.99219ZM9.49219 12.3047H2.69531V5.50781H9.49219V12.3047ZM12.3047 9.49219H10.1953V5.15625C10.1953 5.06301 10.1583 4.97359 10.0923 4.90766C10.0264 4.84173 9.93699 4.80469 9.84375 4.80469H5.50781V2.69531H12.3047V9.49219Z" fill="black"/>
</svg>
