<svg width="15" height="15" viewBox="0 0 15 15" fill="none" xmlns="http://www.w3.org/2000/svg">
<path d="M9.375 9.375H11.875L13.75 13.75H1.25L3.125 9.375H5.625M8.125 5C8.125 5.16576 8.05915 5.32473 7.94194 5.44194C7.82473 5.55915 7.66576 5.625 7.5 5.625C7.33424 5.625 7.17527 5.55915 7.05806 5.44194C6.94085 5.32473 6.875 5.16576 6.875 5C6.875 4.83424 6.94085 4.67527 7.05806 4.55806C7.17527 4.44085 7.33424 4.375 7.5 4.375C7.66576 4.375 7.82473 4.44085 7.94194 4.55806C8.05915 4.67527 8.125 4.83424 8.125 5ZM3.75 5C3.75 8.125 7.5 11.25 7.5 11.25C7.5 11.25 11.25 8.125 11.25 5C11.25 2.86437 9.57125 1.25 7.5 1.25C5.42875 1.25 3.75 2.86437 3.75 5Z" stroke="black" stroke-width="1.25"/>
</svg>
