<svg width="163" height="37" viewBox="0 0 163 37" fill="none" xmlns="http://www.w3.org/2000/svg">
<path d="M19.29 15.9501C19.23 14.6501 18.94 14.2801 18.04 14.1901L18.12 13.8801C18.75 13.9001 19.36 13.9201 20.03 13.9201C20.83 13.9201 21.4 13.9101 22.03 13.8801L21.96 14.1901C21.23 14.2401 20.98 14.7301 20.97 15.4101C20.91 17.0301 20.97 18.9801 20.99 20.1101C21.23 19.7601 23.47 16.6801 23.75 16.2801C23.71 15.1301 23.63 14.2801 22.72 14.1801L22.78 13.8701C23.37 13.8901 23.77 13.9101 24.45 13.9101C25.25 13.9101 25.87 13.9001 26.53 13.8701L26.46 14.1801C25.66 14.2401 25.41 14.6001 25.39 15.3601C25.39 16.8801 25.44 19.0301 25.49 20.1501C26.42 18.9601 27.59 17.3401 28.64 15.8301C29.42 14.7301 29.1 14.2301 27.96 14.1901L28.04 13.8801C28.71 13.9001 29.26 13.9201 29.95 13.9201C30.75 13.9201 31.32 13.9101 31.82 13.8801L31.75 14.1901C31.14 14.3001 30.55 14.6001 29.64 15.6901C27.83 17.9201 25.95 20.4401 24.6 22.2101L23.86 22.3701C23.87 21.0601 23.81 18.4501 23.79 17.1301C23.46 17.5901 20.4 21.7601 20.07 22.2101L19.37 22.3701C19.37 20.6701 19.36 18.2701 19.27 15.9501H19.29Z" fill="white"/>
<path d="M29.82 21.8901C30.96 21.8401 31.29 21.3401 31.61 20.1701C32.06 18.6501 32.41 17.4201 32.85 15.8901C33.2 14.6901 33.15 14.2501 32.03 14.1901L32.13 13.8701C32.87 13.8901 33.47 13.9101 34.21 13.9101C34.95 13.9101 35.62 13.9001 36.32 13.8701L36.22 14.1901C35.26 14.2501 34.94 14.6801 34.58 15.8901C34.45 16.3301 34.17 17.3501 34.1 17.6201H37.66C37.73 17.3401 38.04 16.2901 38.18 15.8101C38.5 14.7101 38.47 14.2101 37.42 14.1901L37.52 13.8701C38.15 13.8901 38.82 13.9101 39.56 13.9101C40.3 13.9101 40.94 13.9001 41.79 13.8701L41.69 14.1901C40.6 14.2101 40.25 14.6801 39.92 15.8101C39.51 17.2301 39.07 18.7201 38.66 20.1801C38.35 21.3201 38.38 21.8501 39.57 21.9001L39.47 22.2201C38.43 22.2001 38.05 22.1801 37.31 22.1801C36.52 22.1801 35.89 22.1901 35.15 22.2201L35.25 21.9001C36.26 21.8601 36.58 21.3801 36.93 20.1801C37.08 19.6401 37.43 18.4701 37.51 18.1501H33.94C33.86 18.4601 33.52 19.6301 33.36 20.1901C33.01 21.3801 33.07 21.8501 34.09 21.8901L33.99 22.2101C33.28 22.2001 32.68 22.1701 31.91 22.1701C31.14 22.1701 30.56 22.1701 29.73 22.2101L29.83 21.8901H29.82Z" fill="white"/>
<path d="M40.04 21.8901C41.22 21.8201 41.52 21.3001 41.85 20.1901C42.3 18.6801 42.64 17.4401 43.09 15.8801C43.45 14.6001 43.32 14.2701 42.25 14.1901L42.35 13.8701C43.28 13.9101 44.48 13.9101 45.67 13.9101C46.74 13.9101 47.46 13.9101 48.61 13.8701C48.78 14.1201 48.72 14.5801 48.56 15.0601L48.21 16.0701H47.87C47.92 14.7901 47.74 14.3801 45.29 14.3801C45.22 14.5601 45.06 15.0801 44.93 15.5301C44.74 16.1501 44.4 17.3301 44.3 17.6601C46.25 17.6601 46.58 17.6401 47.13 16.6801H47.46C47.41 16.8401 46.75 19.1501 46.71 19.3101H46.35C46.45 18.3301 46.16 18.1501 44.17 18.1501C44.06 18.5001 43.69 19.8401 43.53 20.3601C43.24 21.3801 43.37 21.6701 44.49 21.6701C46.09 21.6701 46.89 20.9701 47.69 19.6501L48.04 19.7201L47.63 21.1001C47.44 21.7501 47.22 22.0601 46.95 22.2301C45.75 22.2101 44.81 22.1901 43.7 22.1901C42.36 22.1901 41.41 22.1901 39.96 22.2301L40.06 21.9101L40.04 21.8901Z" fill="white"/>
<path d="M54.23 21.4604C53.96 21.1404 53.69 20.5804 53.44 19.9704C53.22 19.4404 53.06 18.9004 52.94 18.5304C52.63 18.5204 52.31 18.5104 51.98 18.4804C51.9 18.7604 51.65 19.6004 51.51 20.1204C51.18 21.2604 51.22 21.7904 52.53 21.8804L52.43 22.2004C51.48 22.1804 50.89 22.1604 50.04 22.1604C49.24 22.1604 48.71 22.1704 47.86 22.2004L47.96 21.8804C49.1 21.8304 49.43 21.3304 49.77 20.1604C50.21 18.6404 50.56 17.4104 50.99 15.8804C51.34 14.6804 51.29 14.2404 50.17 14.1804L50.27 13.8604H53.48C55.48 13.8604 56.75 14.4804 56.75 15.8504C56.75 17.2204 55.7 17.8804 54.47 18.1804C54.64 18.6704 54.86 19.1804 55.17 19.8004C55.98 21.3704 56.59 21.8504 57.61 21.9104L57.53 22.2104C57.23 22.2704 56.73 22.3304 56.33 22.3304C55.23 22.3304 54.63 21.9604 54.23 21.4504V21.4604ZM54.96 15.8104C54.97 14.9204 54.41 14.2904 53.24 14.2904C53.14 14.5404 52.91 15.3104 52.8 15.6804C52.57 16.4604 52.28 17.4404 52.1 18.1004C53.9 18.2404 54.96 17.3204 54.96 15.8104Z" fill="white"/>
<path d="M57.42 21.8901C58.6 21.8201 58.9 21.3001 59.23 20.1901C59.68 18.6801 60.02 17.4401 60.47 15.8801C60.83 14.6001 60.7 14.2701 59.63 14.1901L59.73 13.8701C60.66 13.9101 61.86 13.9101 63.05 13.9101C64.12 13.9101 64.84 13.9101 65.99 13.8701C66.16 14.1201 66.1 14.5801 65.94 15.0601L65.59 16.0701H65.25C65.3 14.7901 65.12 14.3801 62.67 14.3801C62.6 14.5601 62.44 15.0801 62.31 15.5301C62.12 16.1501 61.78 17.3301 61.68 17.6601C63.63 17.6601 63.96 17.6401 64.51 16.6801H64.84C64.79 16.8401 64.13 19.1501 64.09 19.3101H63.73C63.83 18.3301 63.54 18.1501 61.55 18.1501C61.44 18.5001 61.06 19.8401 60.91 20.3601C60.62 21.3801 60.75 21.6701 61.87 21.6701C63.47 21.6701 64.27 20.9701 65.07 19.6501L65.42 19.7201L65.01 21.1001C64.82 21.7501 64.6 22.0601 64.33 22.2301C63.13 22.2101 62.19 22.1901 61.08 22.1901C59.74 22.1901 58.79 22.1901 57.34 22.2301L57.44 21.9101L57.42 21.8901Z" fill="white"/>
<path d="M70.7 21.8901C71.85 21.8401 72.17 21.3401 72.51 20.1701C72.96 18.6501 73.3 17.4101 73.73 15.8901C74.09 14.6501 74.01 14.2501 72.91 14.1901L73.01 13.8701C73.76 13.8901 74.38 13.9101 75.14 13.9101C75.9 13.9101 76.58 13.9001 77.24 13.8701L77.14 14.1901C76.16 14.2501 75.83 14.6301 75.47 15.9001C75.06 17.2901 74.66 18.7101 74.22 20.2301C73.88 21.4101 74.01 21.6501 75.21 21.6501C76.48 21.6501 77.52 21.1701 78.42 19.4901L78.77 19.5901L78.35 20.8701C78.12 21.5801 77.9 22.0001 77.59 22.2101C76.29 22.1701 75.37 22.1601 74.17 22.1601C72.73 22.1601 71.67 22.1801 70.61 22.2101L70.71 21.8901H70.7Z" fill="white"/>
<path d="M79.34 18.7304C79.45 15.9004 81.84 13.6904 84.46 13.6904C86.63 13.6904 87.96 15.1804 87.85 17.3704C87.74 20.0704 85.51 22.3904 82.71 22.3904C80.5 22.3904 79.22 20.8904 79.33 18.7204L79.34 18.7304ZM85.98 16.7204C86.08 15.2004 85.59 14.1704 84.48 14.1704C82.63 14.1704 81.31 17.1704 81.2 19.4304C81.12 20.9404 81.62 21.9104 82.71 21.9104C84.73 21.9104 85.88 18.6504 85.98 16.7204Z" fill="white"/>
<path d="M89.99 15.9301C89.93 14.5801 89.61 14.2901 88.73 14.1901L88.81 13.8701C89.61 13.8901 90.23 13.9101 90.89 13.9101C91.65 13.9101 92.37 13.9001 93.13 13.8701L93.05 14.1901C91.86 14.2301 91.69 14.7301 91.67 15.5701C91.65 17.1101 91.69 19.0201 91.74 20.1801C92.71 18.9901 94.02 17.3301 95.1 15.8501C95.9 14.7501 95.56 14.2301 94.42 14.2001L94.52 13.8801C95.17 13.9001 95.72 13.9201 96.4 13.9201C97.19 13.9201 97.77 13.9101 98.28 13.8801L98.21 14.2001C97.6 14.3001 97.06 14.6101 96.13 15.7001C94.26 17.8901 92.24 20.4901 90.88 22.2101L90.13 22.3701C90.13 20.7001 90.08 18.3501 90 15.9401L89.99 15.9301Z" fill="white"/>
<path d="M96.25 21.8901C97.43 21.8201 97.73 21.3001 98.06 20.1901C98.51 18.6801 98.85 17.4401 99.3 15.8801C99.66 14.6001 99.53 14.2701 98.46 14.1901L98.56 13.8701C99.49 13.9101 100.69 13.9101 101.88 13.9101C102.95 13.9101 103.67 13.9101 104.82 13.8701C104.99 14.1201 104.93 14.5801 104.77 15.0601L104.42 16.0701H104.08C104.13 14.7901 103.95 14.3801 101.5 14.3801C101.43 14.5601 101.27 15.0801 101.14 15.5301C100.95 16.1501 100.61 17.3301 100.51 17.6601C102.46 17.6601 102.79 17.6401 103.34 16.6801H103.67C103.62 16.8401 102.96 19.1501 102.92 19.3101H102.56C102.66 18.3301 102.37 18.1501 100.38 18.1501C100.27 18.5001 99.89 19.8401 99.74 20.3601C99.45 21.3801 99.58 21.6701 100.7 21.6701C102.3 21.6701 103.1 20.9701 103.9 19.6501L104.25 19.7201L103.84 21.1001C103.65 21.7501 103.43 22.0601 103.16 22.2301C101.96 22.2101 101.02 22.1901 99.91 22.1901C98.57 22.1901 97.62 22.1901 96.17 22.2301L96.27 21.9101L96.25 21.8901Z" fill="white"/>
<path d="M115.79 21.4604C115.52 21.1404 115.25 20.5804 115 19.9704C114.78 19.4404 114.62 18.9004 114.5 18.5304C114.19 18.5204 113.87 18.5104 113.54 18.4804C113.46 18.7604 113.21 19.6004 113.07 20.1204C112.74 21.2604 112.78 21.7904 114.09 21.8804L113.99 22.2004C113.05 22.1804 112.45 22.1604 111.6 22.1604C110.8 22.1604 110.27 22.1704 109.42 22.2004L109.52 21.8804C110.66 21.8304 110.99 21.3304 111.33 20.1604C111.77 18.6404 112.12 17.4104 112.55 15.8804C112.9 14.6804 112.85 14.2404 111.73 14.1804L111.83 13.8604H115.04C117.04 13.8604 118.31 14.4804 118.31 15.8504C118.31 17.2204 117.26 17.8804 116.03 18.1804C116.2 18.6704 116.42 19.1804 116.73 19.8004C117.54 21.3704 118.15 21.8504 119.17 21.9104L119.09 22.2104C118.79 22.2704 118.29 22.3304 117.89 22.3304C116.79 22.3304 116.19 21.9604 115.79 21.4504V21.4604ZM116.51 15.8104C116.52 14.9204 115.97 14.2904 114.79 14.2904C114.69 14.5404 114.46 15.3104 114.35 15.6804C114.12 16.4604 113.83 17.4404 113.65 18.1004C115.45 18.2404 116.51 17.3204 116.51 15.8104Z" fill="white"/>
<path d="M118.98 21.8901C120.16 21.8201 120.46 21.3001 120.79 20.1901C121.24 18.6801 121.58 17.4401 122.03 15.8801C122.39 14.6001 122.26 14.2701 121.19 14.1901L121.29 13.8701C122.22 13.9101 123.42 13.9101 124.61 13.9101C125.68 13.9101 126.4 13.9101 127.55 13.8701C127.72 14.1201 127.66 14.5801 127.5 15.0601L127.15 16.0701H126.81C126.86 14.7901 126.68 14.3801 124.23 14.3801C124.16 14.5601 124 15.0801 123.87 15.5301C123.68 16.1501 123.34 17.3301 123.24 17.6601C125.19 17.6601 125.52 17.6401 126.07 16.6801H126.4C126.35 16.8401 125.69 19.1501 125.65 19.3101H125.29C125.39 18.3301 125.1 18.1501 123.11 18.1501C123 18.5001 122.62 19.8401 122.47 20.3601C122.18 21.3801 122.31 21.6701 123.43 21.6701C125.03 21.6701 125.83 20.9701 126.63 19.6501L126.98 19.7201L126.57 21.1001C126.38 21.7501 126.16 22.0601 125.89 22.2301C124.69 22.2101 123.75 22.1901 122.64 22.1901C121.3 22.1901 120.35 22.1901 118.9 22.2301L119 21.9101L118.98 21.8901Z" fill="white"/>
<path d="M127.74 21.73C127.6 21.35 127.69 20.84 127.84 20.35L128.15 19.31H128.59C128.27 21.13 129.22 21.88 130.37 21.9C131.57 21.92 132.41 21.23 132.41 20.21C132.41 19.5 131.94 19.02 131 18.62C129.79 18.08 129 17.4 129 16.29C129 14.79 130.25 13.71 132.63 13.71C133.5 13.71 134.34 13.87 134.84 14.13C135.08 14.5 134.94 15.17 134.86 15.4L134.56 16.44H134.12C134.24 15.2 133.74 14.2 132.53 14.19C131.38 14.17 130.73 14.84 130.69 15.71C130.65 16.54 131.22 16.91 132 17.27C133.26 17.87 134.08 18.56 134.08 19.7C134.08 21.51 132.44 22.4 130.26 22.4C129.06 22.4 128.05 22.02 127.73 21.73H127.74Z" fill="white"/>
<path d="M135.68 21.8905C136.99 21.8205 137.28 21.3305 137.61 20.1705C138.02 18.7405 138.34 17.6905 138.75 16.2105C139 15.2905 139.26 14.4105 139.26 14.4105C137.53 14.4105 136.79 14.7005 135.98 16.3205L135.6 16.2405L136.02 14.9405C136.17 14.5105 136.44 13.9105 136.66 13.7305C136.85 13.8605 137.29 13.9205 137.52 13.9205H143C143.25 13.9205 143.67 13.8505 143.96 13.7305C144.06 13.9805 144.03 14.5205 143.94 14.9305L143.64 16.2605L143.23 16.3105C143.34 14.7305 142.79 14.4105 141.01 14.4105C141.01 14.4105 140.72 15.4105 140.48 16.2105C140.06 17.6905 139.75 18.7505 139.35 20.1805C139 21.4205 139.1 21.8405 140.31 21.8805L140.23 22.2005C139.09 22.1605 138.7 22.1605 137.87 22.1605C137.09 22.1605 136.68 22.1605 135.59 22.2005L135.7 21.8805L135.68 21.8905Z" fill="white"/>
<path d="M143.28 21.73C143.14 21.35 143.23 20.84 143.38 20.35L143.69 19.31H144.13C143.81 21.13 144.76 21.88 145.91 21.9C147.11 21.92 147.95 21.23 147.95 20.21C147.95 19.5 147.48 19.02 146.54 18.62C145.33 18.08 144.54 17.4 144.54 16.29C144.54 14.79 145.79 13.71 148.17 13.71C149.04 13.71 149.88 13.87 150.38 14.13C150.62 14.5 150.48 15.17 150.4 15.4L150.1 16.44H149.66C149.78 15.2 149.28 14.2 148.07 14.19C146.92 14.17 146.27 14.84 146.23 15.71C146.19 16.54 146.76 16.91 147.54 17.27C148.8 17.87 149.62 18.56 149.62 19.7C149.62 21.51 147.99 22.4 145.8 22.4C144.6 22.4 143.59 22.02 143.27 21.73H143.28Z" fill="white"/>
</svg>
