<svg width="231" height="37" viewBox="0 0 231 37" fill="none" xmlns="http://www.w3.org/2000/svg">
<g clip-path="url(#clip0_51_2)">
<path d="M14.83 15.5497C14.77 14.2497 14.48 13.8797 13.58 13.7897L13.66 13.4797C14.29 13.4997 14.9 13.5197 15.57 13.5197C16.37 13.5197 16.94 13.5097 17.57 13.4797L17.5 13.7897C16.77 13.8397 16.52 14.3297 16.51 15.0097C16.45 16.6297 16.51 18.5797 16.53 19.7097C16.77 19.3597 19.01 16.2797 19.29 15.8797C19.25 14.7297 19.17 13.8797 18.26 13.7797L18.32 13.4697C18.91 13.4897 19.31 13.5097 19.99 13.5097C20.79 13.5097 21.41 13.4997 22.07 13.4697L22 13.7797C21.2 13.8397 20.95 14.1997 20.93 14.9597C20.93 16.4797 20.98 18.6297 21.03 19.7497C21.96 18.5597 23.13 16.9397 24.18 15.4297C24.96 14.3297 24.64 13.8297 23.5 13.7897L23.58 13.4797C24.25 13.4997 24.8 13.5197 25.49 13.5197C26.29 13.5197 26.86 13.5097 27.36 13.4797L27.29 13.7897C26.68 13.8997 26.09 14.1997 25.18 15.2897C23.37 17.5197 21.49 20.0397 20.14 21.8097L19.4 21.9697C19.41 20.6597 19.35 18.0497 19.33 16.7297C19 17.1897 15.94 21.3597 15.61 21.8097L14.91 21.9697C14.91 20.2697 14.9 17.8697 14.81 15.5497H14.83Z" fill="white"/>
<path d="M25.37 21.5005C26.55 21.4305 26.85 20.9105 27.18 19.8005C27.63 18.2905 27.97 17.0505 28.42 15.4905C28.78 14.2105 28.65 13.8805 27.58 13.8005L27.68 13.4805C28.61 13.5205 29.81 13.5205 31 13.5205C32.07 13.5205 32.79 13.5205 33.94 13.4805C34.11 13.7305 34.05 14.1905 33.89 14.6705L33.54 15.6805H33.2C33.25 14.4005 33.07 13.9905 30.62 13.9905C30.55 14.1705 30.39 14.6905 30.26 15.1405C30.07 15.7605 29.73 16.9405 29.63 17.2705C31.58 17.2705 31.91 17.2505 32.46 16.2905H32.79C32.74 16.4505 32.08 18.7605 32.04 18.9205H31.68C31.78 17.9405 31.49 17.7605 29.5 17.7605C29.39 18.1105 29.02 19.4505 28.86 19.9705C28.57 20.9905 28.7 21.2805 29.82 21.2805C31.42 21.2805 32.22 20.5805 33.02 19.2605L33.37 19.3305L32.96 20.7105C32.77 21.3605 32.55 21.6705 32.28 21.8405C31.08 21.8205 30.14 21.8005 29.03 21.8005C27.69 21.8005 26.74 21.8005 25.29 21.8405L25.39 21.5205L25.37 21.5005Z" fill="white"/>
<path d="M39.6 21.3296C39.45 20.9496 39.55 20.4396 39.7 19.9496L40.02 18.9096H40.46C40.15 20.7296 41.09 21.4796 42.24 21.4996C43.44 21.5196 44.28 20.8296 44.28 19.8096C44.28 19.0996 43.81 18.6196 42.87 18.2196C41.66 17.6796 40.87 16.9996 40.87 15.8896C40.87 14.3896 42.12 13.3096 44.5 13.3096C45.37 13.3096 46.21 13.4696 46.71 13.7296C46.95 14.0996 46.81 14.7696 46.73 14.9996L46.43 16.0396H45.99C46.11 14.7996 45.61 13.7996 44.4 13.7896C43.25 13.7696 42.59 14.4396 42.56 15.3096C42.52 16.1396 43.09 16.5096 43.87 16.8696C45.13 17.4696 45.95 18.1596 45.95 19.2996C45.95 21.1096 44.31 21.9996 42.13 21.9996C40.93 21.9996 39.92 21.6196 39.6 21.3296Z" fill="white"/>
<path d="M47.54 21.4998C48.85 21.4298 49.14 20.9398 49.47 19.7798C49.88 18.3498 50.2 17.2998 50.61 15.8198C50.86 14.8998 51.12 14.0198 51.12 14.0198C49.39 14.0198 48.65 14.3098 47.84 15.9298L47.46 15.8498L47.88 14.5498C48.03 14.1198 48.3 13.5198 48.52 13.3398C48.71 13.4698 49.15 13.5298 49.38 13.5298H54.86C55.11 13.5298 55.53 13.4598 55.82 13.3398C55.92 13.5898 55.89 14.1298 55.8 14.5398L55.5 15.8698L55.09 15.9198C55.2 14.3398 54.65 14.0198 52.87 14.0198C52.87 14.0198 52.58 15.0198 52.34 15.8198C51.92 17.2998 51.61 18.3598 51.21 19.7898C50.86 21.0298 50.96 21.4498 52.17 21.4898L52.09 21.8098C50.95 21.7698 50.56 21.7698 49.73 21.7698C48.95 21.7698 48.54 21.7698 47.45 21.8098L47.56 21.4898L47.54 21.4998Z" fill="white"/>
<path d="M52.9 21.4998C53.64 21.4198 54.25 21.1598 55.24 20.0398C57.14 17.8698 59.25 15.2198 60.66 13.4598L61.61 13.2998C61.57 14.5998 61.57 17.7598 61.6 19.7498C61.61 21.0798 61.89 21.4198 62.73 21.4998L62.63 21.8198C61.88 21.7998 61.32 21.7798 60.61 21.7798C59.77 21.7798 59.07 21.7798 58.27 21.8198L58.37 21.4998C59.47 21.4398 59.85 21.0698 59.9 20.1398C59.92 19.6698 59.94 18.9498 59.94 18.6998H57.18C57.02 18.8898 56.51 19.5798 56.2 20.0098C55.33 21.1898 55.8 21.4598 56.83 21.4998L56.73 21.8198C56.05 21.7998 55.43 21.7798 54.69 21.7798C54 21.7798 53.51 21.7898 52.82 21.8198L52.92 21.4998H52.9ZM59.92 18.2098V15.1898L57.52 18.2098H59.92Z" fill="white"/>
<path d="M69.17 21.0697C68.9 20.7497 68.62 20.1897 68.38 19.5797C68.16 19.0497 68 18.5097 67.88 18.1397C67.57 18.1297 67.25 18.1197 66.92 18.0897C66.84 18.3697 66.59 19.2097 66.45 19.7297C66.12 20.8697 66.16 21.3997 67.47 21.4897L67.37 21.8097C66.42 21.7897 65.83 21.7697 64.98 21.7697C64.18 21.7697 63.65 21.7797 62.8 21.8097L62.9 21.4897C64.04 21.4397 64.37 20.9397 64.71 19.7697C65.15 18.2497 65.5 17.0197 65.93 15.4897C66.28 14.2897 66.23 13.8497 65.11 13.7897L65.21 13.4697H68.42C70.42 13.4697 71.69 14.0897 71.69 15.4597C71.69 16.8297 70.64 17.4897 69.41 17.7897C69.58 18.2797 69.8 18.7897 70.11 19.4097C70.92 20.9797 71.53 21.4597 72.55 21.5197L72.47 21.8197C72.17 21.8797 71.67 21.9397 71.27 21.9397C70.17 21.9397 69.57 21.5697 69.17 21.0597V21.0697ZM69.9 15.4197C69.91 14.5297 69.35 13.8997 68.18 13.8997C68.08 14.1497 67.85 14.9197 67.74 15.2897C67.51 16.0697 67.22 17.0497 67.04 17.7097C68.85 17.8497 69.9 16.9297 69.9 15.4197Z" fill="white"/>
<path d="M73.06 21.4998C74.37 21.4298 74.66 20.9398 74.99 19.7798C75.4 18.3498 75.72 17.2998 76.13 15.8198C76.38 14.8998 76.64 14.0198 76.64 14.0198C74.91 14.0198 74.17 14.3098 73.36 15.9298L72.98 15.8498L73.4 14.5498C73.55 14.1198 73.82 13.5198 74.04 13.3398C74.23 13.4698 74.67 13.5298 74.9 13.5298H80.38C80.63 13.5298 81.05 13.4598 81.34 13.3398C81.44 13.5898 81.41 14.1298 81.32 14.5398L81.02 15.8698L80.61 15.9198C80.72 14.3398 80.17 14.0198 78.39 14.0198C78.39 14.0198 78.1 15.0198 77.86 15.8198C77.44 17.2998 77.13 18.3598 76.73 19.7898C76.38 21.0298 76.48 21.4498 77.69 21.4898L77.61 21.8098C76.47 21.7698 76.08 21.7698 75.25 21.7698C74.47 21.7698 74.06 21.7698 72.97 21.8098L73.08 21.4898L73.06 21.4998Z" fill="white"/>
<path d="M86.79 21.4998C88.1 21.4298 88.39 20.9398 88.72 19.7798C89.13 18.3498 89.45 17.2998 89.86 15.8198C90.11 14.8998 90.37 14.0198 90.37 14.0198C88.64 14.0198 87.9 14.3098 87.09 15.9298L86.71 15.8498L87.13 14.5498C87.28 14.1198 87.55 13.5198 87.77 13.3398C87.96 13.4698 88.4 13.5298 88.63 13.5298H94.11C94.36 13.5298 94.78 13.4598 95.07 13.3398C95.17 13.5898 95.14 14.1298 95.05 14.5398L94.75 15.8698L94.34 15.9198C94.45 14.3398 93.9 14.0198 92.12 14.0198C92.12 14.0198 91.83 15.0198 91.59 15.8198C91.17 17.2998 90.86 18.3598 90.46 19.7898C90.11 21.0298 90.21 21.4498 91.42 21.4898L91.34 21.8098C90.2 21.7698 89.81 21.7698 88.98 21.7698C88.2 21.7698 87.79 21.7698 86.7 21.8098L86.81 21.4898L86.79 21.4998Z" fill="white"/>
<path d="M93.43 21.5005C94.57 21.4505 94.9 20.9505 95.22 19.7805C95.67 18.2605 96.02 17.0305 96.46 15.5005C96.81 14.3005 96.76 13.8605 95.64 13.8005L95.74 13.4805C96.48 13.5005 97.08 13.5205 97.82 13.5205C98.56 13.5205 99.23 13.5105 99.93 13.4805L99.83 13.8005C98.87 13.8605 98.55 14.2905 98.19 15.5005C98.06 15.9405 97.78 16.9605 97.71 17.2305H101.27C101.34 16.9505 101.65 15.9005 101.79 15.4205C102.1 14.3205 102.08 13.8205 101.03 13.8005L101.13 13.4805C101.76 13.5005 102.43 13.5205 103.17 13.5205C103.91 13.5205 104.55 13.5105 105.4 13.4805L105.3 13.8005C104.21 13.8205 103.86 14.2905 103.53 15.4205C103.12 16.8405 102.68 18.3305 102.27 19.7905C101.96 20.9305 101.99 21.4605 103.18 21.5105L103.08 21.8305C102.04 21.8105 101.66 21.7905 100.92 21.7905C100.13 21.7905 99.5 21.8005 98.76 21.8305L98.86 21.5105C99.87 21.4705 100.19 20.9905 100.54 19.7905C100.69 19.2505 101.04 18.0805 101.12 17.7605H97.55C97.47 18.0705 97.13 19.2405 96.97 19.8005C96.62 20.9905 96.68 21.4605 97.7 21.5005L97.6 21.8205C96.89 21.8105 96.29 21.7805 95.52 21.7805C94.75 21.7805 94.18 21.7805 93.34 21.8205L93.44 21.5005H93.43Z" fill="white"/>
<path d="M103.65 21.5005C104.83 21.4305 105.13 20.9105 105.46 19.8005C105.91 18.2905 106.25 17.0505 106.7 15.4905C107.06 14.2105 106.93 13.8805 105.86 13.8005L105.96 13.4805C106.89 13.5205 108.09 13.5205 109.28 13.5205C110.35 13.5205 111.07 13.5205 112.22 13.4805C112.39 13.7305 112.33 14.1905 112.17 14.6705L111.82 15.6805H111.48C111.53 14.4005 111.35 13.9905 108.9 13.9905C108.83 14.1705 108.67 14.6905 108.54 15.1405C108.35 15.7605 108.01 16.9405 107.91 17.2705C109.86 17.2705 110.19 17.2505 110.74 16.2905H111.07C111.02 16.4505 110.36 18.7605 110.32 18.9205H109.96C110.06 17.9405 109.77 17.7605 107.78 17.7605C107.67 18.1105 107.29 19.4505 107.14 19.9705C106.85 20.9905 106.98 21.2805 108.1 21.2805C109.7 21.2805 110.5 20.5805 111.3 19.2605L111.65 19.3305L111.24 20.7105C111.05 21.3605 110.83 21.6705 110.56 21.8405C109.36 21.8205 108.42 21.8005 107.31 21.8005C105.97 21.8005 105.02 21.8005 103.57 21.8405L103.67 21.5205L103.65 21.5005Z" fill="white"/>
<path d="M115.97 23.2602C116.65 23.0902 117.11 22.8602 117.51 22.4802C118.04 21.9602 118.36 21.3002 118.9 19.3902C119.35 17.8202 119.59 17.0502 120.01 15.5202C120.37 14.2402 120.29 13.8902 119.19 13.8102L119.29 13.4902C120.04 13.5102 120.72 13.5302 121.51 13.5302C122.3 13.5302 122.77 13.5202 123.5 13.4902L123.4 13.8102C122.44 13.8702 122.13 14.2402 121.74 15.5702C121.29 17.1302 121.13 17.6602 120.7 19.2302C120.51 19.9402 120.28 20.9702 120.24 21.2902C119.97 21.8802 119.54 22.3602 118.92 22.7402C118.23 23.1702 116.92 23.5302 115.92 23.5702L115.98 23.2702L115.97 23.2602Z" fill="white"/>
<path d="M123.01 18.33C123.12 15.5 125.51 13.29 128.13 13.29C130.3 13.29 131.63 14.78 131.52 16.97C131.41 19.67 129.18 21.99 126.38 21.99C124.17 21.99 122.89 20.49 123 18.32L123.01 18.33ZM129.65 16.33C129.75 14.81 129.26 13.78 128.15 13.78C126.3 13.78 124.98 16.78 124.87 19.04C124.79 20.55 125.29 21.52 126.38 21.52C128.4 21.52 129.55 18.26 129.65 16.33Z" fill="white"/>
<path d="M133.42 20.9905C133.09 20.5305 132.84 19.6505 133.26 18.0405C133.5 17.1505 133.7 16.4905 133.95 15.5705C134.33 14.2305 134.24 13.8705 133.14 13.8005L133.24 13.4805C134.14 13.5205 134.63 13.5205 135.42 13.5205C136.21 13.5205 136.54 13.5205 137.44 13.4805L137.34 13.8005C136.39 13.8505 136.14 14.2005 135.69 15.5905C135.41 16.4805 135.22 17.1705 134.99 18.0405C134.74 19.0705 134.7 19.7905 134.87 20.2905C135.08 20.9505 135.77 21.2605 136.54 21.2605C137.38 21.2605 138.04 21.0105 138.56 20.4005C139 19.8805 139.34 19.1005 139.63 18.0705C139.88 17.2105 140.05 16.4605 140.27 15.5905C140.57 14.2505 140.39 13.8505 139.29 13.8005L139.39 13.4805C140 13.4905 140.36 13.5205 141.13 13.5205C141.84 13.5205 142.22 13.5105 142.88 13.4805L142.78 13.8005C141.7 13.8505 141.34 14.2705 141 15.5905C140.77 16.4505 140.61 17.0805 140.37 17.9305C139.99 19.2105 139.74 20.1405 139.05 20.8605C138.31 21.6405 137.37 22.0205 136.15 22.0205C134.74 22.0205 133.88 21.6505 133.41 21.0005L133.42 20.9905Z" fill="white"/>
<path d="M147.37 21.0697C147.1 20.7497 146.83 20.1897 146.58 19.5797C146.36 19.0497 146.2 18.5097 146.08 18.1397C145.77 18.1297 145.45 18.1197 145.12 18.0897C145.04 18.3697 144.79 19.2097 144.65 19.7297C144.32 20.8697 144.36 21.3997 145.67 21.4897L145.57 21.8097C144.63 21.7897 144.03 21.7697 143.18 21.7697C142.38 21.7697 141.85 21.7797 141 21.8097L141.1 21.4897C142.24 21.4397 142.57 20.9397 142.91 19.7697C143.35 18.2497 143.7 17.0197 144.13 15.4897C144.48 14.2897 144.43 13.8497 143.31 13.7897L143.41 13.4697H146.62C148.62 13.4697 149.89 14.0897 149.89 15.4597C149.89 16.8297 148.84 17.4897 147.61 17.7897C147.78 18.2797 148 18.7897 148.31 19.4097C149.12 20.9797 149.73 21.4597 150.75 21.5197L150.67 21.8197C150.37 21.8797 149.87 21.9397 149.47 21.9397C148.37 21.9397 147.77 21.5697 147.37 21.0597V21.0697ZM148.09 15.4197C148.1 14.5297 147.54 13.8997 146.37 13.8997C146.27 14.1497 146.04 14.9197 145.93 15.2897C145.7 16.0697 145.41 17.0497 145.23 17.7097C147.03 17.8497 148.09 16.9297 148.09 15.4197Z" fill="white"/>
<path d="M158.15 21.9105C156.85 19.5505 155.29 16.8205 154.38 15.3105C153.97 16.7105 153.52 18.4405 153.16 19.9205C152.88 21.0505 153.04 21.4405 154.29 21.5005L154.21 21.8205C153.52 21.8005 153.02 21.7805 152.33 21.7805C151.69 21.7805 151.2 21.7905 150.51 21.8205L150.61 21.5005C151.74 21.4305 152.03 20.9105 152.32 19.9405C152.73 18.5805 153.1 17.3305 153.59 15.5405C153.89 14.4205 153.61 13.8905 152.51 13.8005L152.59 13.4805C153.07 13.5005 153.68 13.5205 154.13 13.5205C154.49 13.5205 154.89 13.5105 155.33 13.4805C156.38 15.4105 157.62 17.5605 158.63 19.2405C158.99 17.9605 159.38 16.5505 159.74 15.1005C159.97 14.2105 159.73 13.8405 158.5 13.8105L158.6 13.4905C158.7 13.4905 159.65 13.5305 160.38 13.5305C161.03 13.5305 162.16 13.4905 162.27 13.4905L162.17 13.8105C161.07 13.8505 160.76 14.4005 160.53 15.1405C159.91 17.1205 159.4 18.8605 158.89 20.8705C158.79 21.2405 158.71 21.6305 158.65 22.0205L158.14 21.9105H158.15Z" fill="white"/>
<path d="M160.48 21.5005C161.66 21.4305 161.96 20.9105 162.29 19.8005C162.74 18.2905 163.08 17.0505 163.53 15.4905C163.89 14.2105 163.76 13.8805 162.69 13.8005L162.79 13.4805C163.72 13.5205 164.92 13.5205 166.11 13.5205C167.18 13.5205 167.9 13.5205 169.05 13.4805C169.22 13.7305 169.16 14.1905 169 14.6705L168.65 15.6805H168.31C168.36 14.4005 168.18 13.9905 165.73 13.9905C165.66 14.1705 165.5 14.6905 165.37 15.1405C165.18 15.7605 164.84 16.9405 164.74 17.2705C166.69 17.2705 167.02 17.2505 167.57 16.2905H167.9C167.85 16.4505 167.19 18.7605 167.15 18.9205H166.79C166.89 17.9405 166.6 17.7605 164.61 17.7605C164.5 18.1105 164.12 19.4505 163.97 19.9705C163.68 20.9905 163.81 21.2805 164.93 21.2805C166.53 21.2805 167.33 20.5805 168.13 19.2605L168.48 19.3305L168.07 20.7105C167.88 21.3605 167.66 21.6705 167.39 21.8405C166.19 21.8205 165.25 21.8005 164.14 21.8005C162.8 21.8005 161.85 21.8005 160.4 21.8405L160.5 21.5205L160.48 21.5005Z" fill="white"/>
<path d="M169.73 21.5005C171.1 21.4505 171.39 20.9605 171.75 19.7305C171.82 19.4805 171.92 19.1405 172.02 18.7905C172.12 18.4305 172.15 18.0905 172.06 17.7305C171.9 17.0605 171.58 16.0305 171.25 15.0905C170.86 14.0505 170.49 13.8705 169.97 13.8005L170.07 13.4805C170.81 13.5205 171.45 13.5205 172.13 13.5205C172.88 13.5205 173.38 13.5205 174.21 13.4805L174.11 13.8005C173.08 13.8605 172.84 14.2805 172.99 14.8805C173.2 15.6505 173.58 16.9305 173.79 17.5105C174.26 16.9805 175.17 15.8805 175.81 15.0805C176.43 14.2905 176.23 13.8605 175.3 13.8105L175.4 13.4905C176.03 13.5105 176.55 13.5305 177.23 13.5305C177.85 13.5305 178.49 13.5205 178.88 13.4905L178.78 13.8105C178.17 13.8505 177.62 14.1705 176.62 15.1805C175.75 16.0905 174.84 17.0805 174.18 17.8905C174 18.0905 173.87 18.3605 173.78 18.6705C173.65 19.0905 173.55 19.4705 173.48 19.7305C173.1 21.1005 173.13 21.4605 174.41 21.5205L174.31 21.8405C173.41 21.8205 172.78 21.8005 171.93 21.8005C171.14 21.8005 170.43 21.8105 169.62 21.8405L169.72 21.5205L169.73 21.5005Z" fill="white"/>
<path d="M181.66 21.4998C182.4 21.4198 183 21.1598 184 20.0398C185.9 17.8698 188.01 15.2198 189.42 13.4598L190.36 13.2998C190.32 14.5998 190.32 17.7598 190.35 19.7498C190.36 21.0798 190.64 21.4198 191.48 21.4998L191.38 21.8198C190.63 21.7998 190.07 21.7798 189.36 21.7798C188.52 21.7798 187.82 21.7798 187.02 21.8198L187.12 21.4998C188.22 21.4398 188.6 21.0698 188.65 20.1398C188.67 19.6698 188.69 18.9498 188.69 18.6998H185.93C185.77 18.8898 185.26 19.5798 184.95 20.0098C184.08 21.1898 184.55 21.4598 185.58 21.4998L185.48 21.8198C184.8 21.7998 184.18 21.7798 183.44 21.7798C182.75 21.7798 182.27 21.7898 181.57 21.8198L181.67 21.4998H181.66ZM188.69 18.2098V15.1898L186.29 18.2098H188.69Z" fill="white"/>
<path d="M191.67 21.5005C192.81 21.4505 193.14 20.9505 193.46 19.7805C193.91 18.2605 194.26 17.0305 194.7 15.5005C195.05 14.3005 195 13.8605 193.88 13.8005L193.98 13.4805C194.72 13.5005 195.32 13.5205 196.06 13.5205C196.8 13.5205 197.47 13.5105 198.17 13.4805L198.07 13.8005C197.11 13.8605 196.79 14.2905 196.43 15.5005C196.3 15.9405 196.02 16.9605 195.95 17.2305H199.51C199.58 16.9505 199.89 15.9005 200.03 15.4205C200.34 14.3205 200.32 13.8205 199.27 13.8005L199.37 13.4805C200 13.5005 200.67 13.5205 201.41 13.5205C202.15 13.5205 202.79 13.5105 203.64 13.4805L203.54 13.8005C202.45 13.8205 202.1 14.2905 201.77 15.4205C201.36 16.8405 200.92 18.3305 200.51 19.7905C200.19 20.9305 200.23 21.4605 201.42 21.5105L201.32 21.8305C200.28 21.8105 199.9 21.7905 199.16 21.7905C198.37 21.7905 197.74 21.8005 197 21.8305L197.1 21.5105C198.11 21.4705 198.43 20.9905 198.78 19.7905C198.93 19.2505 199.28 18.0805 199.36 17.7605H195.79C195.71 18.0705 195.37 19.2405 195.21 19.8005C194.86 20.9905 194.92 21.4605 195.94 21.5005L195.84 21.8205C195.13 21.8105 194.53 21.7805 193.76 21.7805C192.99 21.7805 192.42 21.7805 191.58 21.8205L191.68 21.5005H191.67Z" fill="white"/>
<path d="M201.89 21.5005C203.07 21.4305 203.37 20.9105 203.7 19.8005C204.15 18.2905 204.49 17.0505 204.94 15.4905C205.3 14.2105 205.17 13.8805 204.1 13.8005L204.2 13.4805C205.13 13.5205 206.33 13.5205 207.52 13.5205C208.59 13.5205 209.31 13.5205 210.46 13.4805C210.63 13.7305 210.57 14.1905 210.41 14.6705L210.06 15.6805H209.72C209.77 14.4005 209.59 13.9905 207.14 13.9905C207.07 14.1705 206.91 14.6905 206.78 15.1405C206.59 15.7605 206.25 16.9405 206.15 17.2705C208.1 17.2705 208.43 17.2505 208.98 16.2905H209.31C209.26 16.4505 208.6 18.7605 208.56 18.9205H208.2C208.3 17.9405 208.01 17.7605 206.02 17.7605C205.91 18.1105 205.53 19.4505 205.38 19.9705C205.09 20.9905 205.22 21.2805 206.34 21.2805C207.94 21.2805 208.74 20.5805 209.54 19.2605L209.89 19.3305L209.48 20.7105C209.29 21.3605 209.07 21.6705 208.8 21.8405C207.6 21.8205 206.66 21.8005 205.55 21.8005C204.21 21.8005 203.26 21.8005 201.81 21.8405L201.91 21.5205L201.89 21.5005Z" fill="white"/>
<path d="M209.56 21.4998C210.3 21.4198 210.9 21.1598 211.9 20.0398C213.8 17.8698 215.91 15.2198 217.32 13.4598L218.26 13.2998C218.22 14.5998 218.22 17.7598 218.25 19.7498C218.26 21.0798 218.54 21.4198 219.38 21.4998L219.28 21.8198C218.53 21.7998 217.97 21.7798 217.26 21.7798C216.42 21.7798 215.72 21.7798 214.92 21.8198L215.02 21.4998C216.12 21.4398 216.5 21.0698 216.55 20.1398C216.57 19.6698 216.59 18.9498 216.59 18.6998H213.83C213.67 18.8898 213.16 19.5798 212.85 20.0098C211.98 21.1898 212.45 21.4598 213.48 21.4998L213.38 21.8198C212.7 21.7998 212.08 21.7798 211.34 21.7798C210.65 21.7798 210.17 21.7898 209.47 21.8198L209.57 21.4998H209.56ZM216.59 18.2098V15.1898L214.19 18.2098H216.59Z" fill="white"/>
<path d="M219.57 21.5005C220.73 21.4505 221.04 20.9105 221.36 19.8005C221.81 18.2905 222.16 17.0705 222.61 15.4905C222.97 14.2105 222.84 13.8705 221.77 13.8005L221.87 13.4805H225.49C226.77 13.4805 227.67 13.7105 228.34 14.1305C229.21 14.6805 229.65 15.6105 229.64 16.7105C229.63 18.5805 228.69 20.2005 226.91 21.1105C225.79 21.6705 224.66 21.8305 223.26 21.8305H219.47L219.57 21.5105V21.5005ZM227.73 16.4705C227.74 14.7105 226.87 13.7805 224.83 13.8905C224.72 14.1905 224.43 15.1705 224.31 15.5805C223.85 17.1605 223.56 18.1805 223.11 19.7505C222.77 20.9405 222.99 21.3905 223.95 21.3905C226.58 21.3705 227.72 18.2805 227.73 16.4605V16.4705Z" fill="white"/>
<path d="M229.48 21.1097C229.48 20.6097 229.89 20.2197 230.38 20.2197C230.89 20.2197 231.26 20.5997 231.26 21.0997C231.26 21.5997 230.88 21.9897 230.38 21.9897C229.88 21.9897 229.48 21.6097 229.48 21.1097Z" fill="white"/>
</g>
<defs>
<clipPath id="clip0_51_2">
<rect width="230.9" height="36.09" fill="white"/>
</clipPath>
</defs>
</svg>
